<?xml version="1.0" encoding="iso-8859-1"?>
<!-- Generator: Adobe Illustrator 19.0.0, SVG Export Plug-In . SVG Version: 6.00 Build 0)  -->
<svg version="1.1" id="Capa_1" xmlns="http://www.w3.org/2000/svg" xmlns:xlink="http://www.w3.org/1999/xlink" x="0px" y="0px"
	 viewBox="0 0 512.004 512.004" style="enable-background:new 0 0 512.004 512.004;" xml:space="preserve">
<path style="fill:#EFA8B8;" d="M421.457,144.349c-12.094-12.094-27.234-19.278-42.951-21.565c-7.125-1.037-13.827-3.99-19.479-8.449
	c-28.344-22.363-64.133-35.709-103.039-35.709c-29.994,0-56.897,8.101-79.892,21.465c-3.703,2.152-7.963,3.211-12.235,2.91
	c-13.622-0.957-27.568,3.768-37.983,14.183c-7.866,7.866-12.482,17.747-13.857,27.982c-0.951,7.082-5.576,13.031-12.182,15.755
	c-6.14,2.531-11.892,6.29-16.881,11.279c-20.269,20.269-20.269,53.13,0,73.399c2.093,2.093,4.327,3.958,6.662,5.619
	c3.212,89.123,76.461,160.392,166.369,160.392c89.825,0,163.023-71.138,166.359-160.148
	C451.272,221.558,450.988,173.88,421.457,144.349z"/>
<path style="fill:#EB8EA3;" d="M255.988,411.609c89.825,0,163.023-71.138,166.36-160.148c5.639-5.83,10.152-12.341,13.57-19.256
	c-201.405,13.372-249.035-106.352-230.261-145.47c-10.446,3.486-20.324,7.986-29.561,13.355c-3.703,2.152-7.963,3.211-12.235,2.91
	c-13.622-0.957-27.568,3.768-37.983,14.183c-7.866,7.866-12.482,17.747-13.857,27.982c-0.951,7.082-5.576,13.031-12.182,15.755
	c-6.14,2.531-11.892,6.29-16.881,11.279c-20.269,20.269-20.269,53.13,0,73.399c2.093,2.093,4.327,3.958,6.661,5.619
	C92.831,340.341,166.08,411.609,255.988,411.609z"/>
<polygon style="fill:#9D7D75;" points="329.541,200.651 182.463,200.651 201.568,504.502 310.436,504.502 "/>
<g>
	<path style="fill:#B18E82;" d="M182.463,200.651H67.147c-16.498,0-28.932,14.999-25.874,31.211l45.611,241.807
		c3.373,17.882,18.995,30.833,37.193,30.833h77.492L182.463,200.651z"/>
	<path style="fill:#B18E82;" d="M329.541,200.651h115.316c16.498,0,28.932,14.999,25.874,31.211l-45.61,241.807
		c-3.373,17.882-18.995,30.833-37.193,30.833h-77.492L329.541,200.651z"/>
	<path style="fill:#B18E82;" d="M453.061,16.892L346.426,7.563c-8.65-0.757-16.276,5.642-17.033,14.292l-3.214,36.738
		c-0.757,8.65,5.642,16.276,14.292,17.033l106.634,9.329c8.65,0.757,16.276-5.642,17.033-14.292l3.214-36.738
		C468.11,25.275,461.711,17.649,453.061,16.892z"/>
</g>
<path style="fill:#D2DDEA;" d="M437.05,400.641H74.954c-6.338,0-11.116,5.762-9.941,11.991l2.742,14.535
	c1.415,7.504,7.97,12.938,15.606,12.938h345.282c7.636,0,14.191-5.434,15.606-12.938l2.742-14.535
	C448.166,406.403,443.389,400.641,437.05,400.641z"/>
<path style="fill:#C3CED9;" d="M243.924,400.641H74.954c-6.338,0-11.115,5.762-9.94,11.991l2.742,14.535
	c1.415,7.504,7.97,12.938,15.606,12.938h170.097C241.548,433.275,235.465,411.609,243.924,400.641z"/>
<path style="fill:#D2DDEA;" d="M463.293,261.517H48.711c-6.338,0-11.115,5.762-9.941,11.991l2.742,14.535
	c1.415,7.504,7.97,12.938,15.606,12.938h397.767c7.636,0,14.191-5.434,15.606-12.938l2.742-14.535
	C474.408,267.279,469.631,261.517,463.293,261.517z"/>
<path style="fill:#C3CED9;" d="M48.711,261.517c-6.339,0-11.116,5.762-9.941,11.991l2.742,14.535
	c1.415,7.504,7.97,12.938,15.606,12.938h188.328c-17.314-8.931-20.85-29.235-14.122-39.464H48.711z"/>
<ellipse style="fill:#D2DDEA;" cx="256.001" cy="352.37" rx="73.35" ry="30.29"/>
<path style="fill:#C3CED9;" d="M293.53,378.388c-63.541,0.999-77.207-40.983-61.44-54.654
	c-28.765,4.095-49.438,15.363-49.438,28.632c0,16.727,32.84,30.287,73.35,30.287C269.718,382.652,282.549,381.093,293.53,378.388z"
	/>
<circle style="fill:#EFA8B8;" cx="163.611" cy="164.16" r="7.283"/>
<g>
	<circle style="fill:#EB8EA3;" cx="274.581" cy="117.57" r="7.283"/>
	<circle style="fill:#EB8EA3;" cx="338.291" cy="171.44" r="7.283"/>
</g>
<path d="M424.971,41.198l-55.103-4.821c-4.109-0.361-7.764,2.691-8.125,6.818c-0.36,4.126,2.691,7.764,6.818,8.125l55.103,4.821
	c0.222,0.02,0.442,0.028,0.662,0.028c3.847,0,7.121-2.942,7.463-6.847C432.15,45.197,429.098,41.56,424.971,41.198z M476.855,260.39
	c-0.972-1.172-2.089-2.181-3.297-3.049l4.544-24.088c1.872-9.928-0.752-20.083-7.2-27.861c-5.082-6.13-12.059-10.188-19.732-11.638
	c-1.086-20.676-9.591-39.89-24.408-54.708c-8.356-8.355-18.164-14.722-28.931-18.889l2.777-31.74l45.845,4.011
	c0.69,0.061,1.379,0.09,2.063,0.09c5.445,0,10.667-1.893,14.888-5.435c4.751-3.987,7.666-9.586,8.207-15.766l3.214-36.738
	c0.54-6.179-1.357-12.199-5.345-16.951c-3.987-4.751-9.586-7.666-15.766-8.207l-106.635-9.33c-6.174-0.543-12.198,1.357-16.95,5.346
	c-4.752,3.987-7.666,9.586-8.207,15.765l-3.215,36.738c-0.54,6.179,1.357,12.199,5.346,16.951c3.987,4.752,9.586,7.666,15.766,8.207
	l45.846,4.011l-2.524,28.851c-1.177-0.222-2.361-0.424-3.554-0.597c-5.733-0.834-11.236-3.226-15.914-6.915
	c-30.945-24.416-68.182-37.321-107.684-37.321c-29.845,0-57.992,7.563-83.661,22.48c-2.481,1.442-5.223,2.105-7.94,1.913
	c-3.322-0.234-6.687-0.173-9.999,0.183c-4.118,0.44-7.1,4.137-6.658,8.256c0.441,4.118,4.134,7.102,8.256,6.658
	c2.434-0.261,4.906-0.306,7.35-0.134c5.72,0.403,11.439-0.949,16.529-3.907c23.35-13.569,48.961-20.449,76.124-20.449
	c36.098,0,70.121,11.791,98.394,34.098c6.741,5.317,14.71,8.77,23.044,9.982c1.482,0.216,2.945,0.49,4.398,0.797l-3.057,34.941
	c-0.36,4.126,2.691,7.764,6.818,8.125c0.222,0.02,0.442,0.028,0.662,0.028c3.847,0,7.121-2.942,7.463-6.847l2.746-31.39
	c7.252,3.363,13.9,7.994,19.697,13.792c11.826,11.825,18.771,27.061,19.969,43.499H78.139c2.203-5.837,5.622-11.149,10.121-15.648
	c4.174-4.173,9.032-7.42,14.438-9.648c9.039-3.727,15.459-12.038,16.756-21.69c1.179-8.773,5.057-16.78,11.213-23.155
	c2.878-2.979,2.795-7.728-0.184-10.604c-2.981-2.878-7.729-2.796-10.604,0.185c-8.395,8.691-13.683,19.611-15.291,31.578
	c-0.595,4.431-3.438,8.102-7.607,9.82c-7.244,2.986-13.746,7.329-19.327,12.909c-7.448,7.449-12.682,16.561-15.358,26.614
	c-8.247,1.187-15.79,5.363-21.193,11.881c-6.448,7.777-9.072,17.934-7.2,27.862l4.543,24.087c-1.207,0.868-2.324,1.877-3.296,3.049
	c-3.358,4.051-4.724,9.339-3.749,14.509l2.742,14.533c1.465,7.769,6.693,14.024,13.574,17.056l16.972,89.977
	c-1.207,0.868-2.324,1.877-3.297,3.049c-3.357,4.051-4.724,9.339-3.749,14.509l2.742,14.533c1.465,7.769,6.693,14.024,13.574,17.056
	l5.554,29.448c4.038,21.405,22.779,36.942,44.563,36.942h263.852c21.783,0,40.524-15.536,44.564-36.943l5.554-29.447
	c6.88-3.032,12.109-9.286,13.574-17.055l2.742-14.534c0.975-5.17-0.392-10.458-3.749-14.509c-0.972-1.172-2.09-2.181-3.297-3.049
	l16.972-89.977c6.88-3.032,12.109-9.286,13.574-17.055l2.742-14.535C481.578,269.729,480.212,264.441,476.855,260.39z
	 M341.125,68.154c-2.188-0.191-4.17-1.224-5.582-2.906c-1.412-1.682-2.084-3.814-1.893-6.002l3.215-36.737
	c0.191-2.188,1.224-4.171,2.906-5.582c1.494-1.255,3.343-1.925,5.271-1.925c0.242,0,0.485,0.011,0.73,0.032l106.635,9.329
	c2.188,0.191,4.17,1.224,5.582,2.905c1.411,1.683,2.083,3.814,1.892,6.003l-3.214,36.738c-0.191,2.188-1.224,4.17-2.905,5.582
	c-1.684,1.412-3.815,2.08-6.003,1.892L341.125,68.154z M336.584,208.152h108.272c5.624,0,10.908,2.483,14.497,6.813
	c3.59,4.329,5.05,9.982,4.008,15.508l-4.441,23.545H333.701L336.584,208.152z M321.555,208.152l-2.884,45.865H193.333l-2.884-45.865
	H321.555z M52.65,214.964c3.589-4.329,8.873-6.813,14.496-6.813h1.275c0.004,0,0.008,0.001,0.012,0.001
	c0.007,0,0.014-0.001,0.022-0.001h106.964l2.884,45.865H53.084l-4.441-23.544C47.601,224.946,49.061,219.293,52.65,214.964z
	 M63.357,308.481h118.371L183.395,335c-5.203,4.94-8.243,10.741-8.243,17.366c0,7.553,3.95,14.035,10.554,19.391l1.344,21.384
	H79.326L63.357,308.481z M124.076,497.002c-14.578,0-27.121-10.398-29.823-24.723l-4.654-24.675h100.876l3.106,49.398
	L124.076,497.002L124.076,497.002z M303.393,497.002h-94.782l-3.106-49.398h100.994L303.393,497.002z M439.621,411.241
	l-2.742,14.535c-0.746,3.956-4.21,6.828-8.235,6.828h-14.033c-4.143,0-7.5,3.358-7.5,7.5c0,4.143,3.357,7.5,7.5,7.5h7.794
	l-4.654,24.674c-2.703,14.326-15.245,24.724-29.823,24.724h-69.505l3.106-49.398h58.754c4.142,0,7.5-3.357,7.5-7.5
	c0-4.142-3.358-7.5-7.5-7.5H83.36c-4.025,0-7.489-2.872-8.235-6.829l-2.742-14.533c-0.198-1.052,0.264-1.802,0.557-2.155
	c0.293-0.354,0.944-0.946,2.014-0.946h362.097c1.069,0,1.721,0.593,2.014,0.946C439.358,409.441,439.819,410.191,439.621,411.241z
	 M256.002,329.578c28.841,0,50.192,6.948,59.955,14.305c0.184,0.162,0.377,0.314,0.577,0.457c3.463,2.75,5.318,5.538,5.318,8.025
	c0,2.887-2.479,6.178-7.098,9.346c-0.051,0.035-0.103,0.068-0.153,0.104c-10.301,6.987-31.027,13.337-58.599,13.337
	c-27.531,0-48.234-6.331-58.551-13.306c-0.096-0.071-0.196-0.137-0.295-0.203c-4.556-3.146-7.004-6.412-7.004-9.278
	c0-2.487,1.855-5.275,5.318-8.025c0.2-0.143,0.392-0.295,0.577-0.457C205.81,336.526,227.161,329.578,256.002,329.578z
	 M196.758,308.481h118.488l-1.077,17.129c-15.615-7.255-37.241-11.031-58.167-11.031s-42.552,3.776-58.167,11.031L196.758,308.481z
	 M310.71,380.632l-0.786,12.509H202.081l-0.786-12.509c15.262,6.267,35.286,9.521,54.707,9.521
	C275.423,390.153,295.447,386.899,310.71,380.632z M432.678,393.141H324.953l1.344-21.384c6.605-5.356,10.554-11.838,10.554-19.391
	c0-6.626-3.04-12.426-8.243-17.366l1.667-26.519h118.371L432.678,393.141z M465.863,272.117l-2.742,14.535
	c-0.746,3.956-4.21,6.828-8.235,6.828H57.118c-4.025,0-7.489-2.872-8.235-6.829l-2.742-14.533c-0.198-1.052,0.264-1.802,0.557-2.155
	s0.944-0.946,2.014-0.946h414.582c1.069,0,1.721,0.593,2.014,0.946C465.6,270.317,466.062,271.067,465.863,272.117z"/>
<g>
</g>
<g>
</g>
<g>
</g>
<g>
</g>
<g>
</g>
<g>
</g>
<g>
</g>
<g>
</g>
<g>
</g>
<g>
</g>
<g>
</g>
<g>
</g>
<g>
</g>
<g>
</g>
<g>
</g>
</svg>
